<svg fill="none" height="123" viewBox="0 0 189 123" width="189" xmlns="http://www.w3.org/2000/svg" xmlns:xlink="http://www.w3.org/1999/xlink"><mask id="a" height="123" maskUnits="userSpaceOnUse" width="339" x="-150" y="0"><rect fill="#0073ec" height="339" rx="9.90141" transform="matrix(0 -1 1 0 -273 -27)" width="123" x="-150" y="123"/></mask><g mask="url(#a)"><path clip-rule="evenodd" d="m-486.27-298.553-1.339 5.174 90.096 347.8442-90.096 347.8458 1.34 5.173 91.282-352.4254-.153-.5934.153-.5934zm5.767 5.174 1.34-5.174 91.283 352.4248-.154.5934.154.5934-91.283 352.4254-1.34-5.173 90.097-347.8458zm7.106-.002 1.34-5.174 91.283 352.425-.154.5934.154.5934-91.283 352.4252-1.34-5.172 90.097-347.8466zm7.106 0 1.34-5.174 91.282 352.425-.153.5934.153.5934-91.282 352.4252-1.34-5.172 90.096-347.8466zm7.106 0 1.34-5.174 91.283 352.425-.154.5934.154.5934-91.283 352.4252-1.34-5.172 90.097-347.8466zm7.106.002 1.34-5.174 91.283 352.4248-.154.5934.154.5934-91.282 352.4254-1.341-5.173 90.097-347.8458zm7.106-.002 1.34-5.174 91.283 352.425-.154.5934.154.5934-91.283 352.4252-1.34-5.172 90.097-347.8466zm7.106.002 1.34-5.174 91.283 352.4248-.154.5934.154.5934-91.283 352.4254-1.34-5.173 90.097-347.8458zm7.106 0 1.34-5.174 91.283 352.4248-.154.5934.154.5934-91.283 352.4254-1.34-5.173 90.097-347.8458zm7.106 0 1.34-5.174 91.283 352.4248-.154.5934.154.5934-91.283 352.4254-1.34-5.173 90.097-347.8458zm7.106.001 1.34-5.173 91.283 352.4246-.153.5934.153.5934-91.282 352.4246-1.341-5.172 90.097-347.846zm7.106-.001 1.34-5.174 91.283 352.4248-.154.5934.154.5934-91.283 352.4254-1.34-5.173 90.097-347.8458zm7.107.001 1.34-5.173 91.282 352.4246-.153.5934.153.5934-91.282 352.4246-1.34-5.172 90.096-347.846zm7.106-.001 1.339-5.174 91.283 352.4248-.153.5934.153.5934-91.282 352.4254-1.34-5.173 90.096-347.8458zm7.105 0 1.34-5.174 91.283 352.4248-.154.5934.154.5934-91.283 352.4254-1.34-5.173 90.097-347.8458zm7.107 0 1.34-5.174 91.283 352.4248-.154.5934.154.5934-91.283 352.4254-1.34-5.173 90.097-347.8458zm7.106-.002 1.34-5.174 91.282 352.425-.153.5934.153.5934-91.282 352.4252-1.34-5.172 90.096-347.8466zm7.106.002 1.34-5.174 91.283 352.4248-.154.5934.154.5934-91.283 352.4254-1.34-5.173 90.097-347.8458zm7.106-.002 1.34-5.174 91.283 352.425-.154.5934.154.5934-91.283 352.4252-1.34-5.172 90.097-347.8466zm7.106.002 1.34-5.174 91.283 352.4248-.154.5934.154.5934-91.283 352.4254-1.34-5.173 90.097-347.8458zm8.446-5.174-1.34 5.174 90.097 347.8442-90.097 347.8458 1.34 5.173 91.283-352.4254-.154-.5934.154-.5934zm5.692 5.173 1.339-5.174 91.283 352.4249-.153.5934.153.5934-91.282 352.4253-1.34-5.172 90.096-347.8467zm8.446-5.174-1.34 5.174 90.097 347.8443-90.097 347.8467 1.34 5.172 91.283-352.4253-.154-.5934.154-.5934zm7.106-.002-1.34 5.174 90.097 347.8445-90.097 347.8465 1.34 5.172 91.283-352.4251-.154-.5934.154-.5934zm7.106 0-1.34 5.174 90.096 347.8445-90.096 347.8465 1.34 5.172 91.282-352.4251-.153-.5934.153-.5934zm7.106 0-1.34 5.174 90.097 347.8445-90.097 347.8465 1.34 5.172 91.283-352.4251-.154-.5934.154-.5934zm7.106.002-1.34 5.174 90.097 347.8443-90.097 347.8467 1.341 5.172 91.282-352.4253-.154-.5934.154-.5934zm7.106-.002-1.34 5.174 90.097 347.8445-90.097 347.8465 1.34 5.172 91.283-352.4251-.154-.5934.154-.5934zm7.106.002-1.34 5.174 90.097 347.8443-90.097 347.8467 1.341 5.172 91.282-352.4253-.154-.5934.154-.5934zm7.106 0-1.34 5.174 90.097 347.8443-90.097 347.8467 1.34 5.172 91.283-352.4253-.154-.5934.154-.5934zm7.106 0-1.34 5.174 90.097 347.8443-90.097 347.8467 1.341 5.172 91.282-352.4253-.154-.5934.154-.5934zm7.106.002-1.34 5.174 90.097 347.8441-90.096 347.8459 1.34 5.172 91.282-352.4246-.153-.5933.153-.5935zm7.106-.002-1.34 5.174 90.097 347.8443-90.097 347.8467 1.341 5.172 91.282-352.4253-.154-.5935.154-.5933zm7.107.002-1.34 5.174 90.096 347.8441-90.096 347.8459 1.34 5.172 91.282-352.4246-.153-.5933.153-.5935zm7.105-.002-1.339 5.174 90.096 347.8442-90.096 347.8468 1.34 5.172 91.282-352.4253-.153-.5935.153-.5933zm7.106 0-1.34 5.174 90.097 347.8442-90.097 347.8468 1.34 5.172 91.283-352.4253-.154-.5935.154-.5933zm7.107 0-1.34 5.174 90.097 347.8442-90.097 347.8468 1.34 5.172 91.283-352.4253-.154-.5935.154-.5933zm7.106-.002-1.34 5.174 90.096 347.8444-90.096 347.8466 1.34 5.172 91.282-352.4251-.153-.5935.153-.5933zm7.106.002-1.34 5.174 90.097 347.8442-90.097 347.8468 1.34 5.172 91.283-352.4253-.154-.5935.154-.5933zm7.106-.002-1.34 5.174 90.097 347.8444-90.097 347.8466 1.34 5.172 91.283-352.4251-.154-.5935.154-.5933zm7.106.002-1.34 5.174 90.097 347.8442-90.097 347.8468 1.34 5.172 91.283-352.4253-.154-.5935.154-.5933zm5.766 5.174 1.34-5.174 91.283 352.4249-.154.5933.154.5935-91.283 352.4253-1.34-5.172 90.097-347.8468zm8.208 0 1.34-5.174 91.2825 352.4249-.1537.5933.1537.5935-91.2825 352.4253-1.34-5.172 90.0965-347.8468zm8.446-5.174-1.34 5.174 90.0969 347.8442-90.0969 347.8468 1.34 5.172 91.2829-352.4253-.1537-.5935.1537-.5933zm7.106-.002-1.34 5.174 90.097 347.8445-90.097 347.8465 1.34 5.172 91.283-352.4251-.1537-.5934.1537-.5934zm7.106 0-1.34 5.174 90.0966 347.8445-90.0966 347.8465 1.34 5.172 91.2826-352.4251-.1537-.5934.1537-.5934zm7.106 0-1.34 5.174 90.0969 347.8445-90.0969 347.8465 1.34 5.172 91.283-352.4251-.1537-.5934.1537-.5934zm7.106.002-1.339 5.174 90.0963 347.8442-90.0963 347.8468 1.34 5.172 91.2823-352.4253-.1537-.5935.1537-.5933zm7.106-.002-1.34 5.174 90.0972 347.8445-90.0972 347.8465 1.341 5.172 91.2822-352.4251-.1537-.5934.1537-.5934zm7.106.002-1.339 5.174 90.0963 347.8442-90.0963 347.8468 1.34 5.172 91.2823-352.4253-.1537-.5935.1537-.5933zm7.106 0-1.34 5.174 90.0969 347.8442-90.0969 347.8468 1.34 5.172 91.2829-352.4253-.1536-.5935.1536-.5933zm7.106 0-1.339 5.174 90.0963 347.8442-90.0963 347.8468 1.34 5.172 91.2823-352.4253-.1537-.5935.1537-.5933zm7.107.002-1.34 5.174 90.0964 347.844-90.0964 347.846 1.34 5.172 91.2824-352.4245-.1537-.5935.1537-.5933zm7.105-.002-1.339 5.174 90.0962 347.8442-90.0962 347.8468 1.34 5.172 91.2823-352.4253-.1537-.5935.1537-.5933zm7.107.002-1.34 5.174 90.0966 347.844-90.0966 347.846 1.34 5.172 91.2826-352.4245-.1537-.5935.1537-.5933zm7.1056-.002-1.3399 5.174 90.09676 347.8442-90.09666 347.8468 1.3401 5.172 91.28263-352.4253-.15372-.5935.15372-.5933zm7.1057 0-1.3399 5.174 90.09672 347.8442-90.09672 347.8468 1.3401 5.172 91.28265-352.4253-.15369-.5935.15369-.5933zm7.1065 0-1.3398 5.174 90.09668 347.8442-90.09668 347.8468 1.3401 5.172 91.2826-352.4253-.1537-.5935.1537-.5933zm7.1059-.002-1.3398 5.174 90.0967 347.8445-90.0967 347.8465 1.3401 5.172 91.2826-352.4251-.1537-.5934.1537-.5934zm7.1061.002-1.3398 5.174 90.0967 347.8442-90.0967 347.8468 1.3401 5.172 91.2827-352.4253-.1538-.5935.1538-.5933zm7.1061-.002-1.3398 5.174 90.0967 347.8445-90.0967 347.8465 1.3401 5.172 91.2826-352.4251-.1537-.5934.1537-.5934zm7.1062.002-1.3399 5.174 90.0967 347.8442-90.0967 347.8468 1.3401 5.172 91.2827-352.4253-.1538-.5935.1538-.5933zm5.7659 5.174 1.3399-5.174 91.2829 352.4249-.1537.5933.1537.5935-91.2826 352.4253-1.3401-5.172 90.0967-347.8468zm9.1331-5.174-1.3398 5.174 90.0967 347.8442-90.0967 347.8468 1.3401 5.172 91.2826-352.4253-.1537-.5935.1537-.5933zm5.7665 5.174 1.3399-5.174 91.2828 352.4249-.1536.5933.1537.5935-91.2827 352.4253-1.3401-5.172 90.0967-347.8468zm7.1061-.002 1.3399-5.174 91.2829 352.4251-.1537.5933.1537.5935-91.2827 352.4251-1.34-5.172 90.0966-347.8466zm7.1056 0 1.3399-5.174 91.2829 352.4251-.1537.5933.1537.5935-91.2826 352.4251-1.3401-5.172 90.0967-347.8466zm7.1064 0 1.33987-5.174 91.28293 352.4251-.1537.5933.1537.5935-91.28268 352.4251-1.34009-5.172 90.09677-347.8466zm7.10635.002 1.33988-5.174 91.28287 352.4249-.1537.5933.1537.5935-91.28263 352.4253-1.34009-5.172 90.09672-347.8468zm7.10587-.002 1.33987-5.174 91.28291 352.4251-.1537.5933.1537.5935-91.28263 352.4251-1.34012-5.172 90.09675-347.8466zm7.10608.002 1.3399-5.174 91.2831 352.4249-.154.5933.154.5935-91.2828 352.4253-1.3401-5.172 90.0969-347.8468zm7.1057 0 1.3399-5.174 91.2824 352.4249-.153.5933.153.5935-91.2822 352.4253-1.3401-5.172 90.0963-347.8468zm7.1063 0 1.3399-5.174 91.2831 352.4249-.154.5933.154.5935-91.2828 352.4253-1.3401-5.172 90.0969-347.8468zm7.1061.001 1.3399-5.173 91.283 352.4246-.154.5934.154.5934-91.2827 352.4246-1.3402-5.172 90.0969-347.846zm7.1059-.001 1.3399-5.174 91.2831 352.4249-.154.5933.154.5935-91.2829 352.4253-1.3401-5.172 90.097-347.8468zm7.1063.001 1.3399-5.173 91.2828 352.4246-.154.5934.154.5934-91.2825 352.4246-1.3401-5.172 90.0966-347.846zm7.1059-.001 1.3399-5.174 91.2829 352.4249-.154.5933.154.5935-91.2827 352.4253-1.34-5.172 90.0967-347.8468zm7.1057 0 1.3398-5.174 91.2833 352.4249-.154.5933.154.5935-91.283 352.4253-1.3401-5.172 90.0971-347.8468zm7.1065 0 1.34-5.174 91.2826 352.4249-.153.5933.153.5934-91.2824 352.4254-1.3401-5.172 90.0965-347.8468zm7.1059-.002 1.3399-5.174 91.2828 352.4251-.154.5933.154.5934-91.2825 352.4252-1.3401-5.172 90.0966-347.8466zm7.1061.002 1.3399-5.174 91.2827 352.4249-.154.5933.154.5934-91.2825 352.4254-1.34-5.172 90.0965-347.8468zm7.1062-.002 1.3398-5.174 91.2826 352.4251-.153.5933.153.5934-91.2823 352.4252-1.3401-5.172 90.0964-347.8466zm7.106.002 1.3399-5.174 91.2825 352.4249-.153.5933.153.5934-91.2822 352.4254-1.3401-5.172 90.0963-347.8468zm8.4454-5.174-1.339 5.174 90.096 347.8442-90.096 347.8468 1.34 5.172 91.282-352.4254-.153-.5934.153-.5933zm5.693 5.173 1.34-5.174 91.283 352.4252-.154.5934.154.5934-91.283 352.425-1.34-5.172 90.097-347.8464zm8.446-5.174-1.34 5.174 90.097 347.8446-90.097 347.8464 1.34 5.172 91.283-352.425-.154-.5934.154-.5934zm7.106-.002-1.34 5.174 90.097 347.8448-90.097 347.8462 1.34 5.172 91.283-352.4248-.154-.5934.154-.5934zm7.106 0-1.34 5.174 90.097 347.8448-90.097 347.8462 1.34 5.172 91.283-352.4248-.154-.5934.154-.5934zm7.106 0-1.34 5.174 90.097 347.8448-90.097 347.8462 1.34 5.172 91.283-352.4248-.154-.5934.154-.5934zm7.106.002-1.339 5.174 90.096 347.8446-90.096 347.8464 1.34 5.172 91.282-352.425-.153-.5934.153-.5934zm7.106-.002-1.34 5.174 90.097 347.8448-90.096 347.8462 1.34 5.172 91.282-352.4248-.153-.5934.153-.5934zm7.106.002-1.339 5.174 90.096 347.8446-90.096 347.8464 1.34 5.172 91.282-352.425-.153-.5934.153-.5934zm7.106 0-1.34 5.174 90.097 347.8446-90.097 347.8464 1.34 5.172 91.283-352.425-.154-.5934.154-.5934zm7.106 0-1.339 5.174 90.096 347.8446-90.096 347.8464 1.34 5.172 91.282-352.425-.153-.5934.153-.5934zm7.107.002-1.34 5.174 90.096 347.8444-90.096 347.8466 1.34 5.172 91.282-352.4252-.153-.5934.153-.5934zm7.105-.002-1.339 5.174 90.096 347.8446-90.096 347.8464 1.34 5.172 91.282-352.425-.153-.5934.153-.5934zm7.107.002-1.34 5.174 90.097 347.8444-90.097 347.8466 1.34 5.172 91.283-352.4252-.154-.5934.154-.5934zm7.106-.002-1.34 5.174 90.097 347.8446-90.097 347.8464 1.34 5.172 91.283-352.425-.154-.5934.154-.5934zm7.105 0-1.34 5.174 90.097 347.8446-90.097 347.8464 1.341 5.172 91.282-352.425-.153-.5934.153-.5934zm7.107 0-1.34 5.174 90.097 347.8446-90.097 347.8464 1.34 5.172 91.283-352.425-.154-.5934.154-.5934zm7.106-.002-1.34 5.174 90.097 347.8448-90.097 347.8462 1.34 5.172 91.283-352.4248-.154-.5934.154-.5934zm7.106.002-1.34 5.174 90.097 347.8446-90.097 347.8464 1.34 5.172 91.283-352.425-.154-.5934.154-.5934zm7.106-.002-1.34 5.174 90.097 347.8448-90.097 347.8462 1.34 5.172 91.283-352.4248-.154-.5934.154-.5934zm7.106.002-1.34 5.174 90.097 347.8446-90.097 347.8464 1.34 5.172 91.283-352.425-.154-.5934.154-.5934zm5.766 5.174 1.34-5.174 91.283 352.4252-.154.5934.154.5934-91.283 352.425-1.34-5.172 90.097-347.8464zm8.208 0 1.339-5.174 91.283 352.4252-.153.5934.153.5934-91.282 352.425-1.34-5.172 90.096-347.8464zm8.446-5.174-1.34 5.174 90.097 347.8446-90.097 347.8464 1.34 5.172 91.283-352.425-.154-.5934.154-.5934zm7.106-.002-1.34 5.174 90.097 347.8448-90.097 347.8462 1.34 5.172 91.283-352.4248-.154-.5934.154-.5934zm7.105 0-1.339 5.174 90.096 347.8448-90.096 347.8462 1.34 5.172 91.282-352.4248-.153-.5934.153-.5934zm7.107 0-1.34 5.174 90.097 347.8448-90.097 347.8462 1.34 5.172 91.283-352.4248-.154-.5934.154-.5934zm7.106.002-1.34 5.174 90.097 347.8446-90.097 347.8464 1.34 5.172 91.283-352.425-.154-.5934.154-.5934zm7.106-.002-1.34 5.174 90.097 347.8448-90.097 347.8462 1.34 5.172 91.283-352.4248-.154-.5934.154-.5934zm7.106.002-1.34 5.174 90.097 347.8446-90.097 347.8464 1.34 5.172 91.283-352.425-.154-.5934.154-.5934zm7.106 0-1.34 5.174 90.097 347.8446-90.097 347.8464 1.34 5.172 91.283-352.425-.154-.5934.154-.5934zm7.106 0-1.34 5.174 90.097 347.8446-90.097 347.8464 1.34 5.172 91.283-352.425-.154-.5934.154-.5934zm7.106.002-1.34 5.174 90.097 347.8444-90.097 347.8466 1.341 5.172 91.282-352.4252-.154-.5934.154-.5934zm7.106-.002-1.34 5.174 90.097 347.8446-90.097 347.8464 1.34 5.172 91.283-352.425-.154-.5934.154-.5934zm7.107.002-1.34 5.174 90.096 347.8444-90.096 347.8466 1.34 5.172 91.282-352.4252-.153-.5934.153-.5934zm7.105-.002-1.339 5.174 90.096 347.8446-90.096 347.8464 1.34 5.172 91.282-352.425-.153-.5934.153-.5934zm7.106 0-1.34 5.174 90.097 347.8446-90.097 347.8464 1.34 5.172 91.283-352.425-.154-.5934.154-.5934zm7.107 0-1.34 5.174 90.096 347.8446-90.096 347.8464 1.34 5.172 91.283-352.425-.154-.5934.154-.5934zm7.105-.002-1.339 5.174 90.096 347.8448-90.096 347.8462 1.34 5.172 91.282-352.4248-.153-.5934.153-.5934zm7.107.002-1.34 5.174 90.096 347.8446-90.096 347.8464 1.34 5.172 91.282-352.425-.153-.5934.153-.5934zm7.106-.002-1.34 5.174 90.097 347.8448-90.097 347.8462 1.34 5.172 91.283-352.4248-.154-.5934.154-.5934zm7.106.002-1.34 5.174 90.097 347.8446-90.097 347.8464 1.34 5.172 91.283-352.425-.154-.5934.154-.5934zm5.766 5.174 1.34-5.174 91.283 352.4252-.154.5934.154.5934-91.283 352.425-1.34-5.172 90.097-347.8464z" fill="#0073ec" fill-rule="evenodd"/></g></svg>